<?xml version="1.0" encoding="UTF-8" standalone="no"?>
<!-- Created with Inkscape (http://www.inkscape.org/) -->

<svg
   version="1.1"
   id="svg1"
   width="2829.3333"
   height="2829.3333"
   viewBox="0 0 2829.3333 2829.3333"
   sodipodi:docname="coin.eps"
   xmlns:inkscape="http://www.inkscape.org/namespaces/inkscape"
   xmlns:sodipodi="http://sodipodi.sourceforge.net/DTD/sodipodi-0.dtd"
   xmlns="http://www.w3.org/2000/svg"
   xmlns:svg="http://www.w3.org/2000/svg">
  <defs
     id="defs1" />
  <sodipodi:namedview
     id="namedview1"
     pagecolor="#ffffff"
     bordercolor="#000000"
     borderopacity="0.25"
     inkscape:showpageshadow="2"
     inkscape:pageopacity="0.0"
     inkscape:pagecheckerboard="0"
     inkscape:deskcolor="#d1d1d1">
    <inkscape:page
       x="0"
       y="0"
       inkscape:label="1"
       id="page1"
       width="2829.3333"
       height="2829.3333"
       margin="0"
       bleed="0" />
  </sodipodi:namedview>
  <g
     id="g1"
     inkscape:groupmode="layer"
     inkscape:label="1">
    <g
       id="group-R5">
      <path
         id="path2"
         d="m 10606.6,19506.6 c -4911.58,0 -8893.21,-3981.6 -8893.21,-8893.2 0,-4911.6 3981.63,-8893.2 8893.21,-8893.2 4911.6,0 8893.2,3981.6 8893.2,8893.2 0,4911.6 -3981.6,8893.2 -8893.2,8893.2"
         style="fill:#ee9d2b;fill-opacity:1;fill-rule:nonzero;stroke:none"
         transform="matrix(0.13333333,0,0,-0.13333333,0,2829.3333)" />
      <path
         id="path3"
         d="m 10605.3,17849.5 c 0.4,0 0.9,0 1.3,0 v 0 c -0.4,0 -0.9,0 -1.3,0 z m 1.3,1657.1 c -4911.58,0 -8893.21,-3981.6 -8893.21,-8893.2 0,-4911.6 3981.63,-8893.2 8893.21,-8893.2 4911.6,0 8893.2,3981.6 8893.2,8893.2 0,4911.6 -3981.6,8893.2 -8893.2,8893.2"
         style="fill:#f1c533;fill-opacity:1;fill-rule:nonzero;stroke:none"
         transform="matrix(0.13333333,0,0,-0.13333333,0,2829.3333)" />
      <path
         id="path4"
         d="m 17840.4,10800.2 c -12.6,496.5 -75.2,980.6 -183,1447.4 -13.4,58.3 -27.6,116.4 -42.5,174.2 -62.1,241.6 -136.8,478.2 -222.5,709.3 -99,266.6 -212.9,525.9 -341.3,776.6 -26.6,52 -53.9,103.6 -81.7,154.9 -298.9,550.1 -667.3,1056.8 -1092.9,1509.1 -372,395.1 -787.7,748.6 -1239.7,1052.2 -187.7,126.1 -381.5,243.8 -581,352.3 -51.3,27.8 -102.9,55.1 -154.9,81.7 -988.1,506.1 -2107.9,791.6 -3294.3,791.6 -0.4,0 -0.9,0 -1.3,0 -38.9,0 -77.6,-0.8 -116.3,-1.5 -49.1,-0.8 -98.1,-2 -147,-3.8 -7.8,-0.3 -15.6,-0.6 -23.4,-0.9 -43,-1.7 -86,-3.6 -128.9,-6 -20.4,-1.2 -40.7,-2.6 -61,-3.9 -32.4,-2.1 -64.8,-4.1 -97,-6.6 -55.12,-4.3 -110.15,-9.1 -164.94,-14.6 -243.25,-24.7 -482.95,-61.5 -718.47,-109.7 -235.53,-48.2 -466.89,-107.8 -693.47,-178.3 -113.3,-35.2 -225.39,-73.2 -336.22,-113.8 -277.07,-101.4 -546.21,-219.3 -806.24,-352.5 -52,-26.6 -103.64,-53.9 -154.91,-81.7 -102.53,-55.7 -203.56,-113.8 -303.02,-174.3 -128.83,-78.2 -254.72,-160.8 -378.12,-246.8 -67.13,-46.7 -133.73,-94.2 -199.17,-143.1 -835.82,-625.1 -1531.99,-1426.6 -2033.27,-2349.4 -27.85,-51.3 -55.1,-102.9 -81.73,-154.9 -90.8,-177.3 -174.03,-359 -250.24,-544.4 -27.09,-65.9 -53.24,-132.2 -78.42,-199 -91.06,-241.7 -170.02,-489.3 -235.16,-742.5 -14.87,-57.8 -29.05,-115.9 -42.52,-174.2 -107.76,-466.8 -170.35,-950.9 -182.93,-1447.4 -1.57,-62.1 -2.36,-124.3 -2.36,-186.8 0,-52.5 0.73,-104.8 1.99,-157.1 1.18,-49.6 2.83,-99.2 4.9,-148.6 0.15,3.6 0.43,7.3 0.58,10.9 27.23,-678.3 146.75,-1332.8 348.22,-1950.5 59.14,-181.4 125.09,-359.6 197.86,-534.4 495.38,-1189.5 1299.03,-2218.3 2311.29,-2986.8 125.05,-94.9 253.31,-185.8 384.55,-272.7 320.57,-212 658.74,-399.6 1012.31,-559.2 146.68,-66.2 296.13,-127.4 447.84,-184 736.05,-274.3 1528.67,-432.4 2355.75,-451.5 56.8,-1.3 113.7,-2.2 170.8,-2.2 139.4,0 277.8,4.4 415.3,12.1 3702.3,209.6 6659.7,3202.1 6813.9,6918.9 0,-0.2 0,-0.4 0,-0.6 2.1,49.4 3.7,99 4.9,148.6 1.3,52.3 2,104.6 2,157.1 0,62.5 -0.8,124.7 -2.3,186.8"
         style="fill:#d78224;fill-opacity:1;fill-rule:nonzero;stroke:none"
         transform="matrix(0.13333333,0,0,-0.13333333,0,2829.3333)" />
      <path
         id="path5"
         d="m 15495.3,9660.2 1944.8,2726.1 c -324.5,930 -833.5,1773.5 -1483,2486.7 L 15015,13552.4 c -17.2,45.7 -37.4,91.1 -61.9,136 -56.2,102.8 -122.7,191.5 -196.4,267.6 -342.3,352.9 -844.6,425.3 -1236.3,291.3 l 1212.3,1699.3 c -1163.7,809.4 -2576.3,1285.8 -4100,1291.1 L 8984.48,14927.3 c -113.27,104.9 -234.6,192.7 -360.75,260 -337.8,180.4 -710.15,213.1 -1055.7,24.4 -489.86,-267.5 -666.88,-765.2 -612.2,-1200.3 -18.77,-150.2 -9.74,-301 24.7,-441.2 -522.09,114.1 -1198.83,-161.2 -1390.06,-850.8 -41.17,-148.5 -47.76,-293.2 -26.24,-431.7 -74.15,-486.9 211.19,-924.6 668.86,-1217.2 L 3924.06,7833.7 C 4419.44,6644.2 5223.09,5615.4 6235.35,4846.9 6360.4,4752 6488.66,4661.1 6619.9,4574.2 l 1301.22,1824.1 c 101.13,-365.6 375.74,-703.8 831.31,-830.1 198.91,-55.2 391.08,-49.1 570.53,5.1 L 8080.05,3831 c 736.05,-274.3 1528.67,-432.4 2355.75,-451.5 56.8,-1.3 113.7,-2.2 170.8,-2.2 139.4,0 277.8,4.4 415.3,12.1 L 12843,5942.2 c 265.1,-78.1 541.3,-62.2 802.2,80.2 489.9,267.5 666.9,765.3 612.2,1200.3 18.8,150.3 9.7,301 -24.7,441.2 522.1,-114.1 1198.8,161.2 1390.1,850.8 41.1,148.5 47.7,293.2 26.2,431.7 39,256.2 -20.8,498.8 -153.7,713.8"
         style="fill:#e98a2c;fill-opacity:1;fill-rule:nonzero;stroke:none"
         transform="matrix(0.13333333,0,0,-0.13333333,0,2829.3333)" />
      <path
         id="path6"
         d="m 15649,8946.4 c 39,256.2 -20.8,498.8 -153.7,713.8 -77.3,125.2 -179.5,240.8 -300.4,344.5 -342.5,293.8 -837.7,490.8 -1363.7,527.4 -265,18.4 -581.2,55.7 -899.5,99.9 -166.4,23.1 -333.4,48.1 -493.9,73.3 -110.6,17.3 -218,34.7 -320.2,51.7 393,161.5 849.2,341 1241.5,474.2 82.7,28.1 162.6,54.1 238.4,77.4 893.8,275.4 1579.6,1019.5 1470.7,1734.8 25,169.5 10,341.4 -53.2,509 -17.2,45.7 -37.4,91.1 -61.9,136 -56.2,102.8 -122.7,191.5 -196.4,267.6 -342.3,352.9 -844.6,425.3 -1236.3,291.3 -65.1,-22.3 -127.1,-50.4 -184.9,-83.7 2.4,65.3 -0.4,131.7 -9.1,198.2 15.9,118.5 13,242.7 -9.4,366 -73.8,405.3 -356,799.5 -856.2,938.2 -883.2,244.9 -1636.3,-709.2 -1711.6,-1791.6 -44.5,-638.3 -198,-1572.6 -294.3,-2118.8 -209.8,487.1 -611.01,1445.3 -812.83,2100.5 -130.96,425.1 -368.06,803.2 -657.59,1071.2 -113.27,104.9 -234.6,192.7 -360.75,260 -337.8,180.4 -710.15,213.1 -1055.7,24.4 -489.86,-267.5 -666.88,-765.2 -612.2,-1200.3 -18.77,-150.2 -9.74,-301 24.7,-441.2 -522.09,114.1 -1198.83,-161.2 -1390.06,-850.8 -41.17,-148.5 -47.76,-293.2 -26.24,-431.7 -74.15,-486.9 211.19,-924.6 668.86,-1217.2 320.37,-204.9 724.58,-338.9 1148.92,-368.5 499.15,-34.7 1179.41,-136.2 1713.59,-224.9 -475.79,-195.5 -1044.4,-417.5 -1479.84,-551.6 -893.88,-275.3 -1579.64,-1019.4 -1470.69,-1734.8 -31.93,-215.7 0.59,-435.3 115.09,-645 360.18,-659.6 1137.72,-752.3 1617.59,-475.1 -2.42,-65.4 0.4,-131.8 9.11,-198.3 -20.55,-153.2 -9.43,-316.1 34.26,-474 101.13,-365.6 375.74,-703.8 831.31,-830.1 198.91,-55.2 391.08,-49.1 570.53,5.1 562.19,169.9 998.04,816.3 1115.54,1563.8 11.6,73.4 20.4,147.6 25.6,222.6 44.4,638.1 197.9,1572.6 294.3,2118.9 124.3,-288.8 315.8,-743.1 493.3,-1201.7 121.9,-315 237.3,-632 319.5,-898.9 215.8,-700.5 719.6,-1273.2 1271.8,-1435.8 265.1,-78.1 541.3,-62.2 802.2,80.2 489.9,267.5 666.9,765.3 612.2,1200.3 18.8,150.3 9.7,301 -24.7,441.2 522.1,-114.1 1198.8,161.2 1390.1,850.8 41.1,148.5 47.7,293.2 26.2,431.7"
         style="fill:#eba62b;fill-opacity:1;fill-rule:nonzero;stroke:none"
         transform="matrix(0.13333333,0,0,-0.13333333,0,2829.3333)" />
      <path
         id="path7"
         d="m 13645.2,6328.2 c -345.6,-188.7 -717.9,-156 -1055.7,24.3 l 2605.4,3652.2 c -342.5,293.8 -837.7,490.8 -1363.7,527.4 -265,18.4 -581.2,55.7 -899.5,99.9 -166.4,23.1 -333.4,48.1 -493.9,73.3 L 11134.9,8879 c -140.7,351.6 -279.2,679.3 -376.5,905.3 -81.6,-462.7 -204,-1203.1 -266.6,-1806.8 L 8965.59,5838.1 c -70.03,4.6 -141.1,15.8 -213.16,35.8 -524.97,145.6 -809.81,572.5 -865.57,998.4 -20.55,-153.2 -9.43,-316.1 34.26,-474 101.13,-365.6 375.74,-703.8 831.31,-830.1 198.91,-55.2 391.08,-49.1 570.53,5.1 562.19,169.9 998.04,816.3 1115.54,1563.8 11.6,73.4 20.4,147.6 25.6,222.6 44.4,638.1 197.9,1572.6 294.3,2118.9 124.3,-288.8 315.8,-743.1 493.3,-1201.7 121.9,-315 237.3,-632 319.5,-898.9 215.8,-700.5 719.6,-1273.2 1271.8,-1435.8 265.1,-78.1 541.3,-62.2 802.2,80.2 489.9,267.5 666.9,765.3 612.2,1200.3 -43.2,-345.5 -234.7,-688.4 -612.2,-894.5"
         style="fill:#e4c62c;fill-opacity:1;fill-rule:nonzero;stroke:none"
         transform="matrix(0.13333333,0,0,-0.13333333,0,2829.3333)" />
      <path
         id="path8"
         d="m 11600.9,10846.2 c 141.1,-25.3 319,-56.4 516.7,-89.2 393,161.5 849.2,341 1241.5,474.2 82.7,28.1 162.6,54.1 238.4,77.4 893.8,275.4 1579.6,1019.5 1470.7,1734.8 25,169.5 10,341.4 -53.2,509 -17.2,45.7 -37.4,91.1 -61.9,136 -56.2,102.8 -122.7,191.5 -196.4,267.6 L 12918,11378.5 c -477.2,-178.9 -977.8,-387.3 -1317.1,-532.3"
         style="fill:#e4c62c;fill-opacity:1;fill-rule:nonzero;stroke:none"
         transform="matrix(0.13333333,0,0,-0.13333333,0,2829.3333)" />
      <path
         id="path9"
         d="M 7879.35,7105.4 13317,14727.8 c -73.8,405.3 -356,799.5 -856.2,938.2 -883.2,244.9 -1636.3,-709.2 -1711.6,-1791.6 -44.5,-638.3 -198,-1572.6 -294.3,-2118.8 -209.8,487.1 -611.01,1445.3 -812.83,2100.5 -130.96,425.1 -368.06,803.2 -657.59,1071.2 -113.27,104.9 -234.6,192.7 -360.75,260 L 6018.35,11535.2 c -243.84,209.2 -409.84,467.5 -454.12,752.5 -74.15,-486.9 211.19,-924.6 668.86,-1217.2 320.37,-204.9 724.58,-338.9 1148.92,-368.5 499.15,-34.7 1179.41,-136.2 1713.59,-224.9 -475.79,-195.5 -1044.4,-417.5 -1479.84,-551.6 -893.88,-275.3 -1579.64,-1019.4 -1470.69,-1734.8 -31.93,-215.7 0.59,-435.3 115.09,-645 360.18,-659.6 1137.72,-752.3 1617.59,-475.1 0.43,11.6 0.81,23.3 1.6,34.8"
         style="fill:#e4c62c;fill-opacity:1;fill-rule:nonzero;stroke:none"
         transform="matrix(0.13333333,0,0,-0.13333333,0,2829.3333)" />
      <path
         id="path10"
         d="m 12931.7,10632 c -166.4,23.1 -333.4,48.1 -493.9,73.3 -110.6,17.3 -218,34.7 -320.2,51.7 393,161.5 849.2,341 1241.5,474.2 l -427.4,-599.2"
         style="fill:#d78224;fill-opacity:1;fill-rule:nonzero;stroke:none"
         transform="matrix(0.13333333,0,0,-0.13333333,0,2829.3333)" />
      <path
         id="path11"
         d="m 10438.5,7137.1 c 11.6,73.4 20.4,147.6 25.6,222.6 44.4,638.1 197.9,1572.6 294.3,2118.9 124.3,-288.8 315.8,-743.1 493.3,-1201.7 l -813.2,-1139.8"
         style="fill:#d78224;fill-opacity:1;fill-rule:nonzero;stroke:none"
         transform="matrix(0.13333333,0,0,-0.13333333,0,2829.3333)" />
      <path
         id="path12"
         d="m 14636.8,16623.9 c -187.7,126.1 -381.5,243.8 -581,352.3 -51.3,27.8 -102.9,55.1 -154.9,81.7 -988.1,506.1 -2107.9,791.6 -3294.3,791.6 -0.4,0 -0.9,0 -1.3,0 -38.9,0 -77.6,-0.8 -116.3,-1.5 -49.1,-0.8 -98.1,-2 -147,-3.8 -7.8,-0.3 -15.6,-0.6 -23.4,-0.9 -43,-1.7 -86,-3.6 -128.9,-6 -20.4,-1.2 -40.7,-2.6 -61,-3.9 -32.4,-2.1 -64.8,-4.1 -97,-6.6 -55.12,-4.3 -110.15,-9.1 -164.94,-14.6 -243.25,-24.7 -482.95,-61.5 -718.47,-109.7 -235.53,-48.2 -466.89,-107.8 -693.47,-178.3 -113.3,-35.2 -225.39,-73.2 -336.22,-113.8 -277.07,-101.4 -546.21,-219.3 -806.24,-352.5 -52,-26.6 -103.64,-53.9 -154.91,-81.7 -102.53,-55.7 -203.56,-113.8 -303.02,-174.3 -128.83,-78.2 -254.72,-160.8 -378.12,-246.8 -67.13,-46.7 -133.73,-94.2 -199.17,-143.1 -835.82,-625.1 -1531.99,-1426.6 -2033.27,-2349.4 -27.85,-51.3 -55.1,-102.9 -81.73,-154.9 -90.8,-177.3 -174.03,-359 -250.24,-544.4 -27.09,-65.9 -53.24,-132.2 -78.42,-199 -91.06,-241.7 -170.02,-489.3 -235.16,-742.5 -14.87,-57.8 -29.05,-115.9 -42.52,-174.2 -107.76,-466.8 -170.35,-950.9 -182.93,-1447.4 -1.57,-62.1 -2.36,-124.3 -2.36,-186.8 0,-52.5 0.73,-104.8 1.99,-157.1 1.18,-49.6 2.83,-99.2 4.9,-148.6 0.15,3.6 0.43,7.3 0.58,10.9 165.85,3849.4 3338.41,6919.5 7228.62,6919.5 8.7,0 17.4,-0.3 26.1,-0.4 1523.7,-5.3 2936.3,-481.7 4100,-1291.1 447.6,-311.2 858.3,-671.7 1224.4,-1073.6 649.5,-713.2 1158.5,-1556.7 1483,-2486.7 228.4,-654.9 365.5,-1352.6 395.7,-2078 0,-0.2 0,-0.4 0,-0.6 2.1,49.4 3.7,99 4.9,148.6 1.3,52.3 2,104.6 2,157.1 0,62.5 -0.8,124.7 -2.3,186.8 -12.6,496.5 -75.2,980.6 -183,1447.4 -13.4,58.3 -27.6,116.4 -42.5,174.2 -62.1,241.6 -136.8,478.2 -222.5,709.3 -99,266.6 -212.9,525.9 -341.3,776.6 -26.6,52 -53.9,103.6 -81.7,154.9 -298.9,550.1 -667.3,1056.8 -1092.9,1509.1 -372,395.1 -787.7,748.6 -1239.7,1052.2"
         style="fill:#a95e1c;fill-opacity:1;fill-rule:nonzero;stroke:none"
         transform="matrix(0.13333333,0,0,-0.13333333,0,2829.3333)" />
      <path
         id="path13"
         d="m 15432.4,17739.1 c 449.7,-305.1 869,-651.7 1252.5,-1034.3 l -808.4,-1133.1 c -372,395.1 -787.7,748.6 -1239.7,1052.2 l 795.6,1115.2"
         style="fill:#ee9d2b;fill-opacity:1;fill-rule:nonzero;stroke:none"
         transform="matrix(0.13333333,0,0,-0.13333333,0,2829.3333)" />
      <path
         id="path14"
         d="m 2777.31,7037.9 c -498.12,1089 -776.06,2299.7 -776.06,3575.5 0,4752.6 3852.75,8605.4 8605.35,8605.4 280.6,0 557.9,-13.9 831.6,-40.2 L 10489,17848 c -49.1,-0.8 -98.1,-2 -147,-3.8 -7.8,-0.3 -15.6,-0.6 -23.4,-0.9 -43,-1.7 -86,-3.6 -128.9,-6 -20.4,-1.2 -40.7,-2.6 -61,-3.9 -32.4,-2.1 -64.8,-4.1 -97,-6.6 -55.12,-4.3 -110.15,-9.1 -164.94,-14.6 -243.25,-24.7 -482.95,-61.5 -718.47,-109.7 -235.53,-48.2 -466.89,-107.8 -693.47,-178.3 -113.3,-35.2 -225.39,-73.2 -336.22,-113.8 -277.07,-101.4 -546.21,-219.3 -806.24,-352.5 -52,-26.6 -103.64,-53.9 -154.91,-81.7 -102.53,-55.7 -203.56,-113.8 -303.02,-174.3 -128.83,-78.2 -254.72,-160.8 -378.12,-246.8 -67.13,-46.7 -133.73,-94.2 -199.17,-143.1 -835.82,-625.1 -1531.99,-1426.6 -2033.27,-2349.4 -27.85,-51.3 -55.1,-102.9 -81.73,-154.9 -90.8,-177.3 -174.03,-359 -250.24,-544.4 -27.09,-65.9 -53.24,-132.2 -78.42,-199 -91.06,-241.7 -170.02,-489.3 -235.16,-742.5 -14.87,-57.8 -29.05,-115.9 -42.52,-174.2 -107.76,-466.8 -170.35,-950.9 -182.93,-1447.4 -1.57,-62.1 -2.36,-124.3 -2.36,-186.8 0,-52.5 0.73,-104.8 1.99,-157.1 1.18,-49.6 2.83,-99.2 4.9,-148.6 0.15,3.6 0.43,7.3 0.58,10.9 27.23,-678.3 146.75,-1332.8 348.22,-1950.5 L 2777.31,7037.9"
         style="fill:#ee9d2b;fill-opacity:1;fill-rule:nonzero;stroke:none"
         transform="matrix(0.13333333,0,0,-0.13333333,0,2829.3333)" />
      <path
         id="path15"
         d="m 6824.17,2882.3 c -489.38,239.9 -952.75,524.6 -1384.48,849.3 l 795.66,1115.3 c 125.05,-94.9 253.31,-185.8 384.55,-272.7 320.57,-212 658.74,-399.6 1012.31,-559.2 L 6824.17,2882.3"
         style="fill:#ee9d2b;fill-opacity:1;fill-rule:nonzero;stroke:none"
         transform="matrix(0.13333333,0,0,-0.13333333,0,2829.3333)" />
      <path
         id="path16"
         d="m 10606.6,2008 c -372.5,0 -739.48,23.8 -1099.51,69.7 l 928.71,1301.8 c 56.8,-1.3 113.7,-2.2 170.8,-2.2 139.4,0 277.8,4.4 415.3,12.1 3702.3,209.6 6659.7,3202.1 6813.9,6918.9 0,-0.2 0,-0.4 0,-0.6 2.1,49.4 3.7,99 4.9,148.6 1.3,52.3 2,104.6 2,157.1 0,62.5 -0.8,124.7 -2.3,186.8 -12.6,496.5 -75.2,980.6 -183,1447.4 -13.4,58.3 -27.6,116.4 -42.5,174.2 -62.1,241.6 -136.8,478.2 -222.5,709.3 l 927.6,1300.4 c 570.6,-1150.6 892,-2446.7 892,-3818.1 C 19212,5860.8 15359.2,2008 10606.6,2008"
         style="fill:#ee9d2b;fill-opacity:1;fill-rule:nonzero;stroke:none"
         transform="matrix(0.13333333,0,0,-0.13333333,0,2829.3333)" />
      <path
         id="path17"
         d="m 6955.83,14011.4 c -18.77,-150.2 -9.74,-301 24.7,-441.2 54.67,-12 107.67,-28.1 158.22,-48.6 -97.45,138.2 -160.14,308.6 -182.92,489.8"
         style="fill:#a95e1c;fill-opacity:1;fill-rule:nonzero;stroke:none"
         transform="matrix(0.13333333,0,0,-0.13333333,0,2829.3333)" />
      <path
         id="path18"
         d="m 14074.5,8018.3 c 72.7,-103.2 126.2,-224.3 158.2,-354.4 522.1,-114.1 1198.8,161.2 1390.1,850.8 41.1,148.5 47.7,293.2 26.2,431.7 -6.4,-41.7 -14.5,-83.6 -26.2,-125.9 -211.3,-761.9 -1015.1,-1018.1 -1548.3,-802.2"
         style="fill:#a95e1c;fill-opacity:1;fill-rule:nonzero;stroke:none"
         transform="matrix(0.13333333,0,0,-0.13333333,0,2829.3333)" />
      <path
         id="path19"
         d="m 13335.5,14163.6 c 2.4,65.3 -0.4,131.7 -9.1,198.2 -11.5,-85.2 -32.4,-167.5 -63.4,-244.1 23.2,16.4 47.6,31.5 72.5,45.9"
         style="fill:#a95e1c;fill-opacity:1;fill-rule:nonzero;stroke:none"
         transform="matrix(0.13333333,0,0,-0.13333333,0,2829.3333)" />
      <path
         id="path20"
         d="m 13645.2,6022.4 c 489.9,267.5 666.9,765.3 612.2,1200.3 -43.2,-345.5 -234.7,-688.4 -612.2,-894.5 -345.6,-188.7 -717.9,-156 -1055.7,24.3 -448.6,239.5 -836.1,739.8 -1018.3,1331.3 -108.2,351.2 -273.7,789.1 -436.3,1195.2 -140.7,351.6 -279.2,679.3 -376.5,905.3 -81.6,-462.7 -204,-1203.1 -266.6,-1806.8 -11.3,-109.2 -20.9,-214.4 -27.7,-312.1 -69.2,-994.1 -710.22,-1879.1 -1498.51,-1827.3 -70.03,4.6 -141.1,15.8 -213.16,35.8 -524.97,145.6 -809.81,572.5 -865.57,998.4 -20.55,-153.2 -9.43,-316.1 34.26,-474 101.13,-365.6 375.74,-703.8 831.31,-830.1 198.91,-55.2 391.08,-49.1 570.53,5.1 562.19,169.9 998.04,816.3 1115.54,1563.8 11.6,73.4 20.4,147.6 25.6,222.6 44.4,638.1 197.9,1572.6 294.3,2118.9 124.3,-288.8 315.8,-743.1 493.3,-1201.7 121.9,-315 237.3,-632 319.5,-898.9 215.8,-700.5 719.6,-1273.2 1271.8,-1435.8 265.1,-78.1 541.3,-62.2 802.2,80.2"
         style="fill:#a95e1c;fill-opacity:1;fill-rule:nonzero;stroke:none"
         transform="matrix(0.13333333,0,0,-0.13333333,0,2829.3333)" />
      <path
         id="path21"
         d="m 13597.5,11614.4 c -204.8,-63.1 -439.2,-145.8 -679.5,-235.9 -477.2,-178.9 -977.8,-387.3 -1317.1,-532.3 141.1,-25.3 319,-56.4 516.7,-89.2 393,161.5 849.2,341 1241.5,474.2 82.7,28.1 162.6,54.1 238.4,77.4 893.8,275.4 1579.6,1019.5 1470.7,1734.8 -90.6,-611.9 -704.1,-1192.9 -1470.7,-1429"
         style="fill:#a95e1c;fill-opacity:1;fill-rule:nonzero;stroke:none"
         transform="matrix(0.13333333,0,0,-0.13333333,0,2829.3333)" />
      <path
         id="path22"
         d="m 7950.24,7422.2 c -470.2,-331.5 -1311.2,-264.6 -1690.08,429.2 -60.6,111 -97.65,224.8 -115.09,339.3 -31.93,-215.7 0.59,-435.3 115.09,-645 360.18,-659.6 1137.72,-752.3 1617.59,-475.1 0.43,11.6 0.81,23.3 1.6,34.8 7.53,111.2 31.13,218.6 70.89,316.8"
         style="fill:#a95e1c;fill-opacity:1;fill-rule:nonzero;stroke:none"
         transform="matrix(0.13333333,0,0,-0.13333333,0,2829.3333)" />
      <path
         id="path23"
         d="m 7382.01,11007.8 c -525.97,36.6 -1021.15,233.5 -1363.66,527.4 -243.84,209.2 -409.84,467.5 -454.12,752.5 -74.15,-486.9 211.19,-924.6 668.86,-1217.2 320.37,-204.9 724.58,-338.9 1148.92,-368.5 499.15,-34.7 1179.41,-136.2 1713.59,-224.9 192.3,79 369.87,153.8 516.69,216.6 -522.05,93.5 -1546.34,266.4 -2230.28,314.1"
         style="fill:#a95e1c;fill-opacity:1;fill-rule:nonzero;stroke:none"
         transform="matrix(0.13333333,0,0,-0.13333333,0,2829.3333)" />
    </g>
  </g>
</svg>
