<?xml version="1.0" encoding="UTF-8" standalone="no"?>
<!-- Created with Inkscape (http://www.inkscape.org/) -->

<svg
   version="1.1"
   id="svg1"
   width="884.2547"
   height="500.25601"
   viewBox="0 0 884.2547 500.25601"
   sodipodi:docname="logo_SNS_bianco.svg"
   inkscape:version="1.3.2 (091e20e, 2023-11-25)"
   xmlns:inkscape="http://www.inkscape.org/namespaces/inkscape"
   xmlns:sodipodi="http://sodipodi.sourceforge.net/DTD/sodipodi-0.dtd"
   xmlns="http://www.w3.org/2000/svg"
   xmlns:svg="http://www.w3.org/2000/svg">
  <defs
     id="defs1">
    <clipPath
       clipPathUnits="userSpaceOnUse"
       id="clipPath2">
      <path
         d="M 0,375.192 H 663.191 V 0 H 0 Z"
         transform="translate(-335.27371,-278.2231)"
         id="path2" />
    </clipPath>
    <clipPath
       clipPathUnits="userSpaceOnUse"
       id="clipPath4">
      <path
         d="M 0,375.192 H 663.191 V 0 H 0 Z"
         transform="translate(-372.53051,-242.41011)"
         id="path4" />
    </clipPath>
    <clipPath
       clipPathUnits="userSpaceOnUse"
       id="clipPath6">
      <path
         d="M 0,375.192 H 663.191 V 0 H 0 Z"
         transform="translate(-409.19561,-257.1523)"
         id="path6" />
    </clipPath>
    <clipPath
       clipPathUnits="userSpaceOnUse"
       id="clipPath8">
      <path
         d="M 0,375.192 H 663.191 V 0 H 0 Z"
         transform="translate(-434.39481,-243.04341)"
         id="path8" />
    </clipPath>
    <clipPath
       clipPathUnits="userSpaceOnUse"
       id="clipPath10">
      <path
         d="M 0,375.192 H 663.191 V 0 H 0 Z"
         transform="translate(-459.88991,-274.99701)"
         id="path10" />
    </clipPath>
    <clipPath
       clipPathUnits="userSpaceOnUse"
       id="clipPath12">
      <path
         d="M 0,375.192 H 663.191 V 0 H 0 Z"
         transform="translate(-496.96801,-256.9003)"
         id="path12" />
    </clipPath>
    <clipPath
       clipPathUnits="userSpaceOnUse"
       id="clipPath14">
      <path
         d="M 0,375.192 H 663.191 V 0 H 0 Z"
         transform="translate(-318.34301,-201.4321)"
         id="path14" />
    </clipPath>
    <clipPath
       clipPathUnits="userSpaceOnUse"
       id="clipPath16">
      <path
         d="M 0,375.192 H 663.191 V 0 H 0 Z"
         transform="translate(-372.83041,-169.227)"
         id="path16" />
    </clipPath>
    <clipPath
       clipPathUnits="userSpaceOnUse"
       id="clipPath18">
      <path
         d="M 0,375.192 H 663.191 V 0 H 0 Z"
         transform="translate(-404.56571,-189.5995)"
         id="path18" />
    </clipPath>
    <clipPath
       clipPathUnits="userSpaceOnUse"
       id="clipPath20">
      <path
         d="M 0,375.192 H 663.191 V 0 H 0 Z"
         transform="translate(-433.08911,-201.4321)"
         id="path20" />
    </clipPath>
    <clipPath
       clipPathUnits="userSpaceOnUse"
       id="clipPath22">
      <path
         d="M 0,375.192 H 663.191 V 0 H 0 Z"
         transform="translate(-487.87721,-183.08391)"
         id="path22" />
    </clipPath>
    <clipPath
       clipPathUnits="userSpaceOnUse"
       id="clipPath24">
      <path
         d="M 0,375.192 H 663.191 V 0 H 0 Z"
         transform="translate(-519.67021,-201.17961)"
         id="path24" />
    </clipPath>
    <clipPath
       clipPathUnits="userSpaceOnUse"
       id="clipPath26">
      <path
         d="M 0,375.192 H 663.191 V 0 H 0 Z"
         transform="translate(-552.11651,-200.92621)"
         id="path26" />
    </clipPath>
    <clipPath
       clipPathUnits="userSpaceOnUse"
       id="clipPath28">
      <path
         d="M 0,375.192 H 663.191 V 0 H 0 Z"
         transform="translate(-335.27371,-132.7524)"
         id="path28" />
    </clipPath>
    <clipPath
       clipPathUnits="userSpaceOnUse"
       id="clipPath30">
      <path
         d="M 0,375.192 H 663.191 V 0 H 0 Z"
         transform="translate(-374.25421,-111.68211)"
         id="path30" />
    </clipPath>
    <clipPath
       clipPathUnits="userSpaceOnUse"
       id="clipPath32">
      <path
         d="M 0,375.192 H 663.191 V 0 H 0 Z"
         transform="translate(-391.96711,-117.1869)"
         id="path32" />
    </clipPath>
    <clipPath
       clipPathUnits="userSpaceOnUse"
       id="clipPath34">
      <path
         d="M 0,375.192 H 663.191 V 0 H 0 Z"
         transform="translate(-417.93681,-129.27291)"
         id="path34" />
    </clipPath>
    <clipPath
       clipPathUnits="userSpaceOnUse"
       id="clipPath36">
      <path
         d="M 0,375.192 H 663.191 V 0 H 0 Z"
         transform="translate(-457.33431,-117.94671)"
         id="path36" />
    </clipPath>
    <clipPath
       clipPathUnits="userSpaceOnUse"
       id="clipPath38">
      <path
         d="M 0,375.192 H 663.191 V 0 H 0 Z"
         transform="translate(-486.27371,-129.52581)"
         id="path38" />
    </clipPath>
    <clipPath
       clipPathUnits="userSpaceOnUse"
       id="clipPath40">
      <path
         d="M 0,375.192 H 663.191 V 0 H 0 Z"
         transform="translate(-518.36071,-97.5727)"
         id="path40" />
    </clipPath>
    <clipPath
       clipPathUnits="userSpaceOnUse"
       id="clipPath42">
      <path
         d="M 0,375.192 H 663.191 V 0 H 0 Z"
         transform="translate(-550.09411,-117.94671)"
         id="path42" />
    </clipPath>
    <clipPath
       clipPathUnits="userSpaceOnUse"
       id="clipPath44">
      <path
         d="M 0,375.192 H 663.191 V 0 H 0 Z"
         transform="translate(-578.43982,-129.27291)"
         id="path44" />
    </clipPath>
    <clipPath
       clipPathUnits="userSpaceOnUse"
       id="clipPath46">
      <path
         d="M 0,375.192 H 663.191 V 0 H 0 Z"
         transform="translate(-200.04721,-294.59811)"
         id="path46" />
    </clipPath>
    <clipPath
       clipPathUnits="userSpaceOnUse"
       id="clipPath48">
      <path
         d="M 0,375.192 H 663.191 V 0 H 0 Z"
         transform="translate(-150.3772,-327.45891)"
         id="path48" />
    </clipPath>
  </defs>
  <sodipodi:namedview
     id="namedview1"
     pagecolor="#ffffff"
     bordercolor="#000000"
     borderopacity="0.25"
     inkscape:showpageshadow="2"
     inkscape:pageopacity="0.0"
     inkscape:pagecheckerboard="0"
     inkscape:deskcolor="#d1d1d1"
     inkscape:zoom="1.1037544"
     inkscape:cx="441.67435"
     inkscape:cy="250.05563"
     inkscape:window-width="1920"
     inkscape:window-height="1017"
     inkscape:window-x="1733"
     inkscape:window-y="30"
     inkscape:window-maximized="0"
     inkscape:current-layer="layer-MC0">
    <inkscape:page
       x="0"
       y="0"
       inkscape:label="1"
       id="page1"
       width="884.2547"
       height="500.25601"
       margin="11.092934 81.155998 14.678667 14.818"
       bleed="0" />
  </sodipodi:namedview>
  <g
     id="layer-MC0"
     inkscape:groupmode="layer"
     inkscape:label="Logo SNS">
    <path
       id="path1"
       d="m 0,0 c -1.604,0.824 -6.001,2.849 -10.635,2.849 -3.148,0 -5.703,-1.962 -5.703,-6.139 0,-9.745 19.31,-8.859 19.31,-22.399 0,-9.048 -6.714,-12.466 -14.913,-12.466 -4.575,0 -9.15,1.33 -10.397,1.645 v 5.126 c 1.841,-1.139 6.594,-3.796 11.348,-3.796 3.742,0 7.426,1.645 7.426,7.403 0,10.25 -19.309,9.301 -19.309,22.652 0,6.96 4.991,10.947 13.367,10.947 4.1,0 7.961,-0.822 9.506,-1.139 z"
       style="fill:#ffffff;fill-opacity:1;fill-rule:nonzero;stroke:none"
       transform="matrix(1.3333333,0,0,-1.3333333,447.0316,129.29187)"
       clip-path="url(#clipPath2)" />
    <path
       id="path3"
       d="m 0,0 c -1.484,-0.633 -6.298,-2.342 -12.179,-2.342 -12.179,0 -16.872,8.29 -16.872,22.464 0,11.706 3.267,21.513 16.516,21.513 9.267,0 12.892,-4.303 13.546,-9.364 h -7.129 c -0.298,2.087 -1.546,6.391 -6.951,6.391 -8.14,0 -9.448,-10.441 -9.448,-16.958 0,-7.088 0.713,-21.071 12.18,-21.071 5.168,0 8.793,2.214 10.337,3.416 z"
       style="fill:#ffffff;fill-opacity:1;fill-rule:nonzero;stroke:none"
       transform="matrix(1.3333333,0,0,-1.3333333,496.70733,177.04253)"
       clip-path="url(#clipPath4)" />
    <path
       id="path5"
       d="m 0,0 c 0,-8.478 -0.713,-17.084 -14.14,-17.084 -10.457,0 -14.259,5.252 -14.259,14.681 v 20.248 c 0,5.315 -0.178,5.378 -5.941,6.2 v 1.392 l 12.477,1.456 V 0.76 c 0,-7.213 0,-14.869 8.495,-14.869 9.09,0 9.09,7.023 9.09,13.414 V 26.196 H 0 Z"
       style="fill:#ffffff;fill-opacity:1;fill-rule:nonzero;stroke:none"
       transform="matrix(1.3333333,0,0,-1.3333333,545.59413,157.38627)"
       clip-path="url(#clipPath6)" />
    <path
       id="path7"
       d="M 0,0 C 9.208,0 9.565,10.756 9.565,18.855 9.565,27.145 9.03,38.028 0,38.028 -9.209,38.028 -9.922,27.397 -9.922,18.855 -9.922,11.009 -9.031,0 0,0 m -16.457,18.855 c 0,13.605 3.564,22.147 16.457,22.147 12.357,0 16.101,-8.542 16.101,-22.147 0,-13.414 -3.744,-21.83 -16.101,-21.83 -12.536,0 -16.457,8.29 -16.457,21.83"
       style="fill:#ffffff;fill-opacity:1;fill-rule:nonzero;stroke:none"
       transform="matrix(1.3333333,0,0,-1.3333333,579.19307,176.19813)"
       clip-path="url(#clipPath8)" />
    <path
       id="path9"
       d="M 0,0 C 0,5.315 -0.18,5.378 -5.942,6.201 V 7.592 L 6.535,9.048 v -35.561 c 0,-4.746 0,-4.746 3.98,-4.746 h 5.109 c 3.743,0 7.011,0.254 7.011,6.202 h 1.664 l -0.178,-9.175 H 0 Z"
       style="fill:#ffffff;fill-opacity:1;fill-rule:nonzero;stroke:none"
       transform="matrix(1.3333333,0,0,-1.3333333,613.18653,133.59333)"
       clip-path="url(#clipPath10)" />
    <path
       id="path11"
       d="M 0,0 H 13.132 L 6.359,18.476 Z m 2.676,18.349 c 0.356,1.076 1.01,3.29 1.01,3.733 0,2.532 -2.199,2.595 -4.577,2.975 v 1.391 H 10.281 L 24.776,-16.136 H 18.597 L 14.142,-2.975 H -1.009 l -4.456,-13.161 h -3.683 z"
       style="fill:#ffffff;fill-opacity:1;fill-rule:nonzero;stroke:none"
       transform="matrix(1.3333333,0,0,-1.3333333,662.624,157.72227)"
       clip-path="url(#clipPath12)" />
    <path
       id="path13"
       d="M 0,0 C 0,5.885 -0.833,5.631 -5.942,6.708 V 8.099 H 6.594 l 18.714,-34.42 h 0.12 v 34.42 h 3.743 V -34.483 H 23.467 L 3.861,1.519 H 3.741 V -34.483 H 0 Z"
       style="fill:#ffffff;fill-opacity:1;fill-rule:nonzero;stroke:none"
       transform="matrix(1.3333333,0,0,-1.3333333,424.45733,231.67987)"
       clip-path="url(#clipPath14)" />
    <path
       id="path15"
       d="M 0,0 C 9.209,0 9.565,10.756 9.565,18.854 9.565,27.144 9.03,38.027 0,38.027 -9.209,38.027 -9.922,27.396 -9.922,18.854 -9.922,11.008 -9.031,0 0,0 M -16.457,18.854 C -16.457,32.458 -12.893,41 0,41 12.357,41 16.101,32.458 16.101,18.854 16.101,5.439 12.357,-2.975 0,-2.975 c -12.536,0 -16.457,8.288 -16.457,21.829"
       style="fill:#ffffff;fill-opacity:1;fill-rule:nonzero;stroke:none"
       transform="matrix(1.3333333,0,0,-1.3333333,497.1072,274.62)"
       clip-path="url(#clipPath16)" />
    <path
       id="path17"
       d="m 0,0 h 3.386 c 3.861,0 9.268,1.139 9.268,8.226 0,6.834 -3.683,8.732 -8.675,8.732 C 0,16.958 0,15.819 0,11.263 Z m -6.536,11.327 c 0,6.263 -0.119,6.263 -5.645,7.213 v 1.392 H 2.435 c 4.456,0 16.754,0 16.754,-11.327 0,-7.213 -4.396,-9.618 -9.09,-10.44 L 21.031,-22.651 H 14.198 L 3.683,-2.973 H 0 v -19.678 h -6.536 z"
       style="fill:#ffffff;fill-opacity:1;fill-rule:nonzero;stroke:none"
       transform="matrix(1.3333333,0,0,-1.3333333,539.42093,247.45667)"
       clip-path="url(#clipPath18)" />
    <path
       id="path19"
       d="M 0,0 C 0,5.885 -0.831,5.631 -5.881,6.708 V 8.099 H 7.604 l 11.765,-34.927 h 0.118 L 31.013,8.099 h 8.021 v -42.582 h -5.94 V 3.164 h -0.12 L 20.498,-34.483 H 16.279 L 3.863,2.784 H 3.743 V -34.483 H 0 Z"
       style="fill:#ffffff;fill-opacity:1;fill-rule:nonzero;stroke:none"
       transform="matrix(1.3333333,0,0,-1.3333333,577.45213,231.67987)"
       clip-path="url(#clipPath20)" />
    <path
       id="path21"
       d="M 0,0 H 13.131 L 6.358,18.474 Z m 2.675,18.348 c 0.355,1.076 1.01,3.29 1.01,3.733 0,2.532 -2.199,2.595 -4.576,2.975 v 1.391 h 11.17 l 14.497,-42.582 h -6.179 l -4.455,13.16 H -1.009 l -4.456,-13.16 h -3.683 z"
       style="fill:#ffffff;fill-opacity:1;fill-rule:nonzero;stroke:none"
       transform="matrix(1.3333333,0,0,-1.3333333,650.50293,256.14413)"
       clip-path="url(#clipPath22)" />
    <path
       id="path23"
       d="M 0,0 C 0,5.315 -0.179,5.378 -5.942,6.201 V 7.592 L 6.535,9.048 v -35.561 c 0,-4.746 0,-4.746 3.98,-4.746 h 5.109 c 3.743,0 7.011,0.255 7.011,6.202 h 1.664 l -0.178,-9.174 H 0 Z"
       style="fill:#ffffff;fill-opacity:1;fill-rule:nonzero;stroke:none"
       transform="matrix(1.3333333,0,0,-1.3333333,692.8936,232.01653)"
       clip-path="url(#clipPath24)" />
    <path
       id="path25"
       d="m 0,0 c 0,6.263 -0.178,6.263 -5.645,7.213 v 1.392 h 28.46 l 0.176,-9.365 h -1.662 c 0,5.063 -2.495,6.391 -6.416,6.391 H 10.277 C 7.308,5.631 6.536,5.378 6.536,2.341 V -10.25 h 7.189 c 4.099,0 4.515,2.783 4.872,4.872 h 1.662 v -13.287 h -1.662 c 0,3.415 -1.308,5.44 -4.872,5.44 H 6.536 v -14.11 c 0,-3.542 0.772,-3.671 3.741,-3.671 h 6.596 c 3.386,0 4.991,1.267 5.347,6.202 h 1.665 l -0.179,-9.174 -23.706,0 z"
       style="fill:#ffffff;fill-opacity:1;fill-rule:nonzero;stroke:none"
       transform="matrix(1.3333333,0,0,-1.3333333,736.15533,232.3544)"
       clip-path="url(#clipPath26)" />
    <path
       id="path27"
       d="m 0,0 c -1.604,0.822 -6.001,2.849 -10.635,2.849 -3.148,0 -5.703,-1.963 -5.703,-6.139 0,-9.744 19.31,-8.858 19.31,-22.4 0,-9.048 -6.714,-12.464 -14.913,-12.464 -4.575,0 -9.15,1.329 -10.397,1.644 v 5.125 c 1.841,-1.137 6.594,-3.795 11.348,-3.795 3.742,0 7.426,1.645 7.426,7.403 0,10.249 -19.309,9.3 -19.309,22.653 0,6.958 4.991,10.945 13.367,10.945 4.1,0 7.961,-0.823 9.506,-1.138 z"
       style="fill:#ffffff;fill-opacity:1;fill-rule:nonzero;stroke:none"
       transform="matrix(1.3333333,0,0,-1.3333333,447.0316,323.2528)"
       clip-path="url(#clipPath28)" />
    <path
       id="path29"
       d="m 0,0 c 0,-8.478 -0.713,-17.084 -14.14,-17.084 -10.457,0 -14.259,5.25 -14.259,14.68 v 20.248 c 0,5.315 -0.178,5.379 -5.941,6.201 v 1.391 l 12.477,1.456 V 0.76 c 0,-7.214 0,-14.869 8.495,-14.869 9.09,0 9.09,7.021 9.09,13.413 V 26.195 H 0 Z"
       style="fill:#ffffff;fill-opacity:1;fill-rule:nonzero;stroke:none"
       transform="matrix(1.3333333,0,0,-1.3333333,499.0056,351.34653)"
       clip-path="url(#clipPath30)" />
    <path
       id="path31"
       d="m 0,0 h 3.09 c 4.693,0 8.732,1.646 8.732,9.237 0,7.088 -3.147,8.481 -8.435,8.481 C 0.178,17.718 0,16.515 0,13.921 Z m -6.534,12.086 c 0,6.263 -0.12,6.263 -5.704,7.214 v 1.39 H 6.298 c 7.307,0 12.06,-4.239 12.06,-11.705 0,-11.96 -8.911,-11.96 -16.279,-11.96 H 0 v -18.918 h -6.534 z"
       style="fill:#ffffff;fill-opacity:1;fill-rule:nonzero;stroke:none"
       transform="matrix(1.3333333,0,0,-1.3333333,522.6228,344.0068)"
       clip-path="url(#clipPath32)" />
    <path
       id="path33"
       d="m 0,0 c 0,6.263 -0.178,6.263 -5.645,7.214 v 1.39 h 28.458 l 0.179,-9.363 h -1.663 c 0,5.061 -2.495,6.391 -6.416,6.391 h -4.636 c -2.969,0 -3.742,-0.255 -3.742,-3.29 v -12.593 h 7.19 c 4.098,0 4.514,2.783 4.871,4.872 h 1.663 v -13.287 h -1.663 c 0,3.416 -1.308,5.44 -4.871,5.44 h -7.19 v -14.109 c 0,-3.543 0.773,-3.672 3.742,-3.672 h 6.596 c 3.386,0 4.991,1.267 5.347,6.202 h 1.664 l -0.178,-9.174 -23.706,0 z"
       style="fill:#ffffff;fill-opacity:1;fill-rule:nonzero;stroke:none"
       transform="matrix(1.3333333,0,0,-1.3333333,557.24907,327.89213)"
       clip-path="url(#clipPath34)" />
    <path
       id="path35"
       d="m 0,0 h 3.386 c 3.861,0 9.268,1.138 9.268,8.226 0,6.832 -3.683,8.732 -8.675,8.732 C 0,16.958 0,15.817 0,11.264 Z m -6.536,11.326 c 0,6.263 -0.119,6.263 -5.645,7.214 v 1.391 H 2.435 c 4.456,0 16.754,0 16.754,-11.327 0,-7.213 -4.396,-9.619 -9.09,-10.441 L 21.031,-22.652 H 14.198 L 3.683,-2.975 H 0 v -19.677 h -6.536 z"
       style="fill:#ffffff;fill-opacity:1;fill-rule:nonzero;stroke:none"
       transform="matrix(1.3333333,0,0,-1.3333333,609.77907,342.99373)"
       clip-path="url(#clipPath36)" />
    <path
       id="path37"
       d="M 0,0 C 0,5.315 -0.178,5.379 -5.94,6.201 V 7.592 L 6.535,9.048 V -34.231 H 0 Z"
       style="fill:#ffffff;fill-opacity:1;fill-rule:nonzero;stroke:none"
       transform="matrix(1.3333333,0,0,-1.3333333,648.36493,327.55493)"
       clip-path="url(#clipPath38)" />
    <path
       id="path39"
       d="M 0,0 C 9.208,0 9.565,10.756 9.565,18.855 9.565,27.144 9.03,38.028 0,38.028 -9.209,38.028 -9.922,27.396 -9.922,18.855 -9.922,11.008 -9.031,0 0,0 m -16.457,18.855 c 0,13.605 3.563,22.146 16.457,22.146 12.357,0 16.1,-8.541 16.1,-22.146 0,-13.416 -3.743,-21.83 -16.1,-21.83 -12.536,0 -16.457,8.288 -16.457,21.83"
       style="fill:#ffffff;fill-opacity:1;fill-rule:nonzero;stroke:none"
       transform="matrix(1.3333333,0,0,-1.3333333,691.1476,370.15907)"
       clip-path="url(#clipPath40)" />
    <path
       id="path41"
       d="m 0,0 h 3.386 c 3.862,0 9.268,1.138 9.268,8.226 0,6.832 -3.683,8.732 -8.674,8.732 C 0,16.958 0,15.817 0,11.264 Z m -6.536,11.326 c 0,6.263 -0.119,6.263 -5.645,7.214 v 1.391 H 2.435 c 4.456,0 16.754,0 16.754,-11.327 0,-7.213 -4.396,-9.619 -9.09,-10.441 L 21.031,-22.652 H 14.199 L 3.683,-2.975 H 0 v -19.677 h -6.536 z"
       style="fill:#ffffff;fill-opacity:1;fill-rule:nonzero;stroke:none"
       transform="matrix(1.3333333,0,0,-1.3333333,733.4588,342.99373)"
       clip-path="url(#clipPath42)" />
    <path
       id="path43"
       d="m 0,0 c 0,6.263 -0.178,6.263 -5.644,7.214 v 1.39 h 28.458 l 0.177,-9.363 h -1.663 c 0,5.061 -2.495,6.391 -6.416,6.391 h -4.635 c -2.969,0 -3.742,-0.255 -3.742,-3.29 v -12.593 h 7.189 c 4.099,0 4.516,2.783 4.872,4.872 h 1.663 v -13.287 h -1.663 c 0,3.416 -1.307,5.44 -4.872,5.44 H 6.535 v -14.109 c 0,-3.543 0.773,-3.672 3.742,-3.672 h 6.595 c 3.387,0 4.991,1.267 5.347,6.202 h 1.665 l -0.179,-9.174 -23.705,0 z"
       style="fill:#ffffff;fill-opacity:1;fill-rule:nonzero;stroke:none"
       transform="matrix(1.3333333,0,0,-1.3333333,771.25307,327.89213)"
       clip-path="url(#clipPath44)" />
    <path
       id="path45"
       d="m 0,0 c -1.114,-2.544 -1.694,-5.339 -1.694,-8.271 0,-11.758 9.924,-21.034 22.165,-21.288 0,0 2.162,-0.063 3.088,-0.063 12.074,0 22.601,5.943 29.21,15.039 13.014,-11.916 21.085,-28.498 21.085,-46.838 0,-11.478 -3.169,-22.127 -8.726,-31.515 -13.951,-3.239 -25.635,-11.845 -31.418,-23.691 -1.015,-2.082 -1.79,-4.323 -1.79,-6.769 0,-7.832 6.387,-14.107 14.631,-14.213 0.138,-6.356 0.211,-11.793 0.211,-18.421 0,-18.625 -0.71,-36.464 -1.733,-52.439 -1.145,-29.771 -20.292,-55.662 -46.541,-66.289 -4.469,6.704 -13.835,11.232 -24.28,11.303 -1.237,0.009 -2.102,-0.046 -3.17,-0.135 -6.135,-0.51 -11.111,-5.022 -11.111,-11.182 0,-3.248 1.384,-6.172 3.594,-8.212 -7.255,-0.837 -14.147,-1.294 -21.662,-1.294 -6.483,0 -12.88,0.319 -19.173,0.944 2.211,2.042 4.308,5.314 4.308,8.562 0,6.16 -4.977,10.672 -11.111,11.182 -1.069,0.089 -1.933,0.144 -3.171,0.135 -10.445,-0.071 -19.811,-4.599 -24.28,-11.303 -26.249,10.627 -45.396,36.518 -46.541,66.289 -1.022,15.975 -1.732,33.814 -1.732,52.439 0,6.628 0.072,12.065 0.21,18.421 8.244,0.106 14.631,6.381 14.631,14.213 0,2.446 -0.775,4.687 -1.79,6.769 -5.783,11.846 -17.466,20.452 -31.418,23.691 -5.557,9.388 -8.726,20.037 -8.726,31.515 0,18.34 8.07,34.922 21.085,46.838 6.609,-9.096 17.137,-15.039 29.211,-15.039 0.925,0 3.088,0.063 3.088,0.063 12.237,0.254 22.164,9.53 22.164,21.288 0,3.144 -0.666,6.127 -1.94,8.814 0,0 -0.149,0.335 -0.141,0.344 17.329,5.276 35.945,8.144 55.326,8.144 20.416,0 39.988,-3.183 58.094,-9.013 C -0.037,0.016 -0.014,0.003 0,0 Z m -57.23,-22.357 0.779,0.003 c 45.357,0 82.175,-22.337 82.567,-49.985 l 0.18,-4.5 c -0.014,-4.247 -0.279,-8.48 -0.279,-8.48 -0.783,-11.019 -2.953,-21.572 -5.78,-30.674 -6.086,-16.715 -9.733,-38.008 -9.733,-61.199 0,-2.069 0.029,-4.121 0.087,-6.159 -0.021,-9.776 -0.498,-16.461 -1.834,-25.014 l -0.617,-3.404 c -4.108,-24.256 -31.791,-43.095 -64.45,-43.095 l -1.087,0.006 -1.009,-0.006 c -32.657,0 -60.343,18.839 -64.45,43.095 l -0.616,3.404 c -1.338,8.553 -1.814,15.238 -1.834,25.014 0.057,2.038 0.085,4.09 0.085,6.159 0,23.191 -3.647,44.484 -9.732,61.199 -2.828,9.102 -4.997,19.655 -5.78,30.674 0,0 -0.266,4.233 -0.279,8.48 l 0.179,4.5 c 0.394,27.648 37.21,49.985 82.57,49.985 z m -12.633,-105.348 c 0,6.985 5.66,12.648 12.648,12.648 6.986,0 12.649,-5.663 12.649,-12.648 0,-6.984 -5.663,-12.65 -12.649,-12.65 -6.988,0 -12.648,5.666 -12.648,12.65 z m 0,-103.304 c 0,6.987 5.66,12.648 12.648,12.648 6.986,0 12.649,-5.661 12.649,-12.648 0,-6.985 -5.663,-12.649 -12.649,-12.649 -6.988,0 -12.648,5.664 -12.648,12.649 z m -41.429,73.864 c 0,6.987 5.664,12.65 12.648,12.65 6.986,0 12.649,-5.663 12.649,-12.65 0,-6.984 -5.663,-12.649 -12.649,-12.649 -6.984,0 -12.648,5.665 -12.648,12.649 z m 2.518,-50.043 c 0,6.985 5.663,12.648 12.648,12.648 6.986,0 12.649,-5.663 12.649,-12.648 0,-6.986 -5.663,-12.649 -12.649,-12.649 -6.985,0 -12.648,5.663 -12.648,12.649 z m 80.241,50.043 c 0,6.987 5.66,12.65 12.645,12.65 6.989,0 12.652,-5.663 12.652,-12.65 0,-6.984 -5.663,-12.649 -12.652,-12.649 -6.985,0 -12.645,5.665 -12.645,12.649 z m -2.521,-50.043 c 0,6.985 5.663,12.648 12.648,12.648 6.985,0 12.648,-5.663 12.648,-12.648 0,-6.986 -5.663,-12.649 -12.648,-12.649 -6.985,0 -12.648,5.663 -12.648,12.649 z m -104.126,92.035 c 25.201,6.561 52.403,8.961 80.212,8.961 26.229,0 51.573,-3.146 75.515,-9.009 M -71,-30.859 l 13.645,-8.453 13.795,8.547 -27.628,-68.694 13.833,8.178 13.795,-8.181 z m -55.891,-25.852 13.59,-13.163 -13.41,-19.592 c 19.045,12.658 41.111,21.027 69.376,24.44 0,0 -36.704,8.845 -60.183,8.845 -4.092,0 -5.431,-0.345 -9.373,-0.53 z m 139.11,0.003 -13.59,-13.161 13.41,-19.593 c -19.046,12.657 -41.111,21.026 -69.374,24.44 0,0 36.702,8.845 60.181,8.845 4.092,0 5.432,-0.344 9.373,-0.531 z"
       style="fill:none;stroke:#ffffff;stroke-width:4;stroke-linecap:round;stroke-linejoin:round;stroke-miterlimit:3;stroke-dasharray:none;stroke-opacity:1"
       transform="matrix(1.3333333,0,0,-1.3333333,266.7296,107.45853)"
       clip-path="url(#clipPath46)" />
    <path
       id="path47"
       d="m 0,0 c -0.899,0.258 -3.446,1.059 -1.399,9.184 2.047,8.124 7.323,12.069 9.488,11.447 2.162,-0.623 4.653,-1.325 3.532,-5.774 C 10.5,10.408 5.646,11.791 4.348,12.164 3.05,12.537 1.019,10.84 -0.023,6.713 -1.063,2.585 0.377,-0.362 0,0 Z m -15.147,0 c 0.897,0.258 3.443,1.059 1.399,9.184 -2.047,8.124 -7.323,12.069 -9.488,11.447 -2.164,-0.623 -4.654,-1.325 -3.533,-5.774 1.119,-4.449 5.974,-3.066 7.271,-2.693 1.298,0.373 3.333,-1.324 4.373,-5.451 1.039,-4.128 -0.259,-7.075 -0.022,-6.713 z m 7.625,-13.321 c 19.381,0 43.121,-3.456 60.449,-8.735 L 66.938,12.348 C 62.545,0.665 51.928,-14.185 45.986,-13.138 c -2.67,0.471 -5.159,5.851 -6.005,12.244 -1.045,7.906 -0.095,17.081 -0.095,17.081 0.012,-0.054 -1.964,-9.549 -5.438,-16.283 -2.986,-5.788 -7.284,-9.01 -10.045,-8.523 -5.969,1.054 -8.571,13.327 -6.912,27.828 0,0 -2.731,-12.287 -6.643,-19.664 -2.899,-5.46 -6.626,-6.728 -9.426,-6.248 l -3.028,0.094 c -1.969,0.312 -4.769,3.505 -4.769,9.021 0,12.372 4.735,14.84 4.735,19.206 0,4.272 -3.291,11.328 -6.043,13.271 -2.752,-1.943 -5.884,-8.999 -5.884,-13.271 0,-4.366 4.734,-6.834 4.734,-19.206 0,-5.516 -2.798,-8.709 -4.768,-9.021 l -3.029,-0.094 c -2.799,-0.48 -6.524,0.788 -9.422,6.248 -3.915,7.377 -6.647,19.664 -6.647,19.664 1.659,-14.501 -0.942,-26.774 -6.912,-27.828 -2.761,-0.487 -7.055,2.735 -10.042,8.523 -3.476,6.734 -5.45,16.229 -5.437,16.283 0,0 0.947,-9.175 -0.098,-17.081 -0.843,-6.393 -3.333,-11.773 -6.005,-12.244 -5.939,-1.047 -16.559,13.803 -20.953,25.486 l 14.012,-34.404 c 17.328,5.279 41.231,8.735 60.612,8.735 z"
       style="fill:none;stroke:#ffffff;stroke-width:3;stroke-linecap:butt;stroke-linejoin:miter;stroke-miterlimit:3.864;stroke-dasharray:none;stroke-opacity:1"
       transform="matrix(1.3333333,0,0,-1.3333333,200.50293,63.644133)"
       clip-path="url(#clipPath48)" />
  </g>
</svg>
