<?xml version="1.0" encoding="UTF-8" standalone="no"?>
<!-- Created with Inkscape (http://www.inkscape.org/) -->

<svg
   version="1.1"
   id="svg1"
   width="449.02466"
   height="500.2569"
   viewBox="0 0 449.02466 500.2569"
   sodipodi:docname="solo_logo_SNS_bianco.svg"
   inkscape:version="1.4 (e7c3feb1, 2024-10-09)"
   xmlns:inkscape="http://www.inkscape.org/namespaces/inkscape"
   xmlns:sodipodi="http://sodipodi.sourceforge.net/DTD/sodipodi-0.dtd"
   xmlns="http://www.w3.org/2000/svg"
   xmlns:svg="http://www.w3.org/2000/svg">
  <defs
     id="defs1">
    <clipPath
       clipPathUnits="userSpaceOnUse"
       id="clipPath2">
      <path
         d="M 0,375.192 H 663.191 V 0 H 0 Z"
         transform="translate(-335.27371,-278.2231)"
         id="path2" />
    </clipPath>
    <clipPath
       clipPathUnits="userSpaceOnUse"
       id="clipPath4">
      <path
         d="M 0,375.192 H 663.191 V 0 H 0 Z"
         transform="translate(-372.53051,-242.41011)"
         id="path4" />
    </clipPath>
    <clipPath
       clipPathUnits="userSpaceOnUse"
       id="clipPath6">
      <path
         d="M 0,375.192 H 663.191 V 0 H 0 Z"
         transform="translate(-409.19561,-257.1523)"
         id="path6" />
    </clipPath>
    <clipPath
       clipPathUnits="userSpaceOnUse"
       id="clipPath8">
      <path
         d="M 0,375.192 H 663.191 V 0 H 0 Z"
         transform="translate(-434.39481,-243.04341)"
         id="path8" />
    </clipPath>
    <clipPath
       clipPathUnits="userSpaceOnUse"
       id="clipPath10">
      <path
         d="M 0,375.192 H 663.191 V 0 H 0 Z"
         transform="translate(-459.88991,-274.99701)"
         id="path10" />
    </clipPath>
    <clipPath
       clipPathUnits="userSpaceOnUse"
       id="clipPath12">
      <path
         d="M 0,375.192 H 663.191 V 0 H 0 Z"
         transform="translate(-496.96801,-256.9003)"
         id="path12" />
    </clipPath>
    <clipPath
       clipPathUnits="userSpaceOnUse"
       id="clipPath14">
      <path
         d="M 0,375.192 H 663.191 V 0 H 0 Z"
         transform="translate(-318.34301,-201.4321)"
         id="path14" />
    </clipPath>
    <clipPath
       clipPathUnits="userSpaceOnUse"
       id="clipPath16">
      <path
         d="M 0,375.192 H 663.191 V 0 H 0 Z"
         transform="translate(-372.83041,-169.227)"
         id="path16" />
    </clipPath>
    <clipPath
       clipPathUnits="userSpaceOnUse"
       id="clipPath18">
      <path
         d="M 0,375.192 H 663.191 V 0 H 0 Z"
         transform="translate(-404.56571,-189.5995)"
         id="path18" />
    </clipPath>
    <clipPath
       clipPathUnits="userSpaceOnUse"
       id="clipPath20">
      <path
         d="M 0,375.192 H 663.191 V 0 H 0 Z"
         transform="translate(-433.08911,-201.4321)"
         id="path20" />
    </clipPath>
    <clipPath
       clipPathUnits="userSpaceOnUse"
       id="clipPath22">
      <path
         d="M 0,375.192 H 663.191 V 0 H 0 Z"
         transform="translate(-487.87721,-183.08391)"
         id="path22" />
    </clipPath>
    <clipPath
       clipPathUnits="userSpaceOnUse"
       id="clipPath24">
      <path
         d="M 0,375.192 H 663.191 V 0 H 0 Z"
         transform="translate(-519.67021,-201.17961)"
         id="path24" />
    </clipPath>
    <clipPath
       clipPathUnits="userSpaceOnUse"
       id="clipPath26">
      <path
         d="M 0,375.192 H 663.191 V 0 H 0 Z"
         transform="translate(-552.11651,-200.92621)"
         id="path26" />
    </clipPath>
    <clipPath
       clipPathUnits="userSpaceOnUse"
       id="clipPath28">
      <path
         d="M 0,375.192 H 663.191 V 0 H 0 Z"
         transform="translate(-335.27371,-132.7524)"
         id="path28" />
    </clipPath>
    <clipPath
       clipPathUnits="userSpaceOnUse"
       id="clipPath30">
      <path
         d="M 0,375.192 H 663.191 V 0 H 0 Z"
         transform="translate(-374.25421,-111.68211)"
         id="path30" />
    </clipPath>
    <clipPath
       clipPathUnits="userSpaceOnUse"
       id="clipPath32">
      <path
         d="M 0,375.192 H 663.191 V 0 H 0 Z"
         transform="translate(-391.96711,-117.1869)"
         id="path32" />
    </clipPath>
    <clipPath
       clipPathUnits="userSpaceOnUse"
       id="clipPath34">
      <path
         d="M 0,375.192 H 663.191 V 0 H 0 Z"
         transform="translate(-417.93681,-129.27291)"
         id="path34" />
    </clipPath>
    <clipPath
       clipPathUnits="userSpaceOnUse"
       id="clipPath36">
      <path
         d="M 0,375.192 H 663.191 V 0 H 0 Z"
         transform="translate(-457.33431,-117.94671)"
         id="path36" />
    </clipPath>
    <clipPath
       clipPathUnits="userSpaceOnUse"
       id="clipPath38">
      <path
         d="M 0,375.192 H 663.191 V 0 H 0 Z"
         transform="translate(-486.27371,-129.52581)"
         id="path38" />
    </clipPath>
    <clipPath
       clipPathUnits="userSpaceOnUse"
       id="clipPath40">
      <path
         d="M 0,375.192 H 663.191 V 0 H 0 Z"
         transform="translate(-518.36071,-97.5727)"
         id="path40" />
    </clipPath>
    <clipPath
       clipPathUnits="userSpaceOnUse"
       id="clipPath42">
      <path
         d="M 0,375.192 H 663.191 V 0 H 0 Z"
         transform="translate(-550.09411,-117.94671)"
         id="path42" />
    </clipPath>
    <clipPath
       clipPathUnits="userSpaceOnUse"
       id="clipPath44">
      <path
         d="M 0,375.192 H 663.191 V 0 H 0 Z"
         transform="translate(-578.43982,-129.27291)"
         id="path44" />
    </clipPath>
    <clipPath
       clipPathUnits="userSpaceOnUse"
       id="clipPath46">
      <path
         d="M 0,375.192 H 663.191 V 0 H 0 Z"
         transform="translate(-200.04721,-294.59811)"
         id="path46" />
    </clipPath>
    <clipPath
       clipPathUnits="userSpaceOnUse"
       id="clipPath48">
      <path
         d="M 0,375.192 H 663.191 V 0 H 0 Z"
         transform="translate(-150.3772,-327.45891)"
         id="path48" />
    </clipPath>
  </defs>
  <sodipodi:namedview
     id="namedview1"
     pagecolor="#ffffff"
     bordercolor="#000000"
     borderopacity="0.25"
     inkscape:showpageshadow="2"
     inkscape:pageopacity="0.0"
     inkscape:pagecheckerboard="0"
     inkscape:deskcolor="#d1d1d1"
     inkscape:zoom="0.65796741"
     inkscape:cx="353.36097"
     inkscape:cy="427.07282"
     inkscape:window-width="1720"
     inkscape:window-height="1041"
     inkscape:window-x="5"
     inkscape:window-y="43"
     inkscape:window-maximized="0"
     inkscape:current-layer="layer-MC0">
    <inkscape:page
       x="0"
       y="0"
       inkscape:label="1"
       id="page1"
       width="449.02466"
       height="500.2569"
       margin="11.092934 81.155998 14.678667 14.818"
       bleed="0" />
  </sodipodi:namedview>
  <g
     id="layer-MC0"
     inkscape:groupmode="layer"
     inkscape:label="Logo SNS"
     transform="translate(3.9353708e-4,-3.5842846)">
    <path
       id="path45"
       d="m 0,0 c -1.114,-2.544 -1.694,-5.339 -1.694,-8.271 0,-11.758 9.924,-21.034 22.165,-21.288 0,0 2.162,-0.063 3.088,-0.063 12.074,0 22.601,5.943 29.21,15.039 13.014,-11.916 21.085,-28.498 21.085,-46.838 0,-11.478 -3.169,-22.127 -8.726,-31.515 -13.951,-3.239 -25.635,-11.845 -31.418,-23.691 -1.015,-2.082 -1.79,-4.323 -1.79,-6.769 0,-7.832 6.387,-14.107 14.631,-14.213 0.138,-6.356 0.211,-11.793 0.211,-18.421 0,-18.625 -0.71,-36.464 -1.733,-52.439 -1.145,-29.771 -20.292,-55.662 -46.541,-66.289 -4.469,6.704 -13.835,11.232 -24.28,11.303 -1.237,0.009 -2.102,-0.046 -3.17,-0.135 -6.135,-0.51 -11.111,-5.022 -11.111,-11.182 0,-3.248 1.384,-6.172 3.594,-8.212 -7.255,-0.837 -14.147,-1.294 -21.662,-1.294 -6.483,0 -12.88,0.319 -19.173,0.944 2.211,2.042 4.308,5.314 4.308,8.562 0,6.16 -4.977,10.672 -11.111,11.182 -1.069,0.089 -1.933,0.144 -3.171,0.135 -10.445,-0.071 -19.811,-4.599 -24.28,-11.303 -26.249,10.627 -45.396,36.518 -46.541,66.289 -1.022,15.975 -1.732,33.814 -1.732,52.439 0,6.628 0.072,12.065 0.21,18.421 8.244,0.106 14.631,6.381 14.631,14.213 0,2.446 -0.775,4.687 -1.79,6.769 -5.783,11.846 -17.466,20.452 -31.418,23.691 -5.557,9.388 -8.726,20.037 -8.726,31.515 0,18.34 8.07,34.922 21.085,46.838 6.609,-9.096 17.137,-15.039 29.211,-15.039 0.925,0 3.088,0.063 3.088,0.063 12.237,0.254 22.164,9.53 22.164,21.288 0,3.144 -0.666,6.127 -1.94,8.814 0,0 -0.149,0.335 -0.141,0.344 17.329,5.276 35.945,8.144 55.326,8.144 20.416,0 39.988,-3.183 58.094,-9.013 C -0.037,0.016 -0.014,0.003 0,0 Z m -57.23,-22.357 0.779,0.003 c 45.357,0 82.175,-22.337 82.567,-49.985 l 0.18,-4.5 c -0.014,-4.247 -0.279,-8.48 -0.279,-8.48 -0.783,-11.019 -2.953,-21.572 -5.78,-30.674 -6.086,-16.715 -9.733,-38.008 -9.733,-61.199 0,-2.069 0.029,-4.121 0.087,-6.159 -0.021,-9.776 -0.498,-16.461 -1.834,-25.014 l -0.617,-3.404 c -4.108,-24.256 -31.791,-43.095 -64.45,-43.095 l -1.087,0.006 -1.009,-0.006 c -32.657,0 -60.343,18.839 -64.45,43.095 l -0.616,3.404 c -1.338,8.553 -1.814,15.238 -1.834,25.014 0.057,2.038 0.085,4.09 0.085,6.159 0,23.191 -3.647,44.484 -9.732,61.199 -2.828,9.102 -4.997,19.655 -5.78,30.674 0,0 -0.266,4.233 -0.279,8.48 l 0.179,4.5 c 0.394,27.648 37.21,49.985 82.57,49.985 z m -12.633,-105.348 c 0,6.985 5.66,12.648 12.648,12.648 6.986,0 12.649,-5.663 12.649,-12.648 0,-6.984 -5.663,-12.65 -12.649,-12.65 -6.988,0 -12.648,5.666 -12.648,12.65 z m 0,-103.304 c 0,6.987 5.66,12.648 12.648,12.648 6.986,0 12.649,-5.661 12.649,-12.648 0,-6.985 -5.663,-12.649 -12.649,-12.649 -6.988,0 -12.648,5.664 -12.648,12.649 z m -41.429,73.864 c 0,6.987 5.664,12.65 12.648,12.65 6.986,0 12.649,-5.663 12.649,-12.65 0,-6.984 -5.663,-12.649 -12.649,-12.649 -6.984,0 -12.648,5.665 -12.648,12.649 z m 2.518,-50.043 c 0,6.985 5.663,12.648 12.648,12.648 6.986,0 12.649,-5.663 12.649,-12.648 0,-6.986 -5.663,-12.649 -12.649,-12.649 -6.985,0 -12.648,5.663 -12.648,12.649 z m 80.241,50.043 c 0,6.987 5.66,12.65 12.645,12.65 6.989,0 12.652,-5.663 12.652,-12.65 0,-6.984 -5.663,-12.649 -12.652,-12.649 -6.985,0 -12.645,5.665 -12.645,12.649 z m -2.521,-50.043 c 0,6.985 5.663,12.648 12.648,12.648 6.985,0 12.648,-5.663 12.648,-12.648 0,-6.986 -5.663,-12.649 -12.648,-12.649 -6.985,0 -12.648,5.663 -12.648,12.649 z m -104.126,92.035 c 25.201,6.561 52.403,8.961 80.212,8.961 26.229,0 51.573,-3.146 75.515,-9.009 M -71,-30.859 l 13.645,-8.453 13.795,8.547 -27.628,-68.694 13.833,8.178 13.795,-8.181 z m -55.891,-25.852 13.59,-13.163 -13.41,-19.592 c 19.045,12.658 41.111,21.027 69.376,24.44 0,0 -36.704,8.845 -60.183,8.845 -4.092,0 -5.431,-0.345 -9.373,-0.53 z m 139.11,0.003 -13.59,-13.161 13.41,-19.593 c -19.046,12.657 -41.111,21.026 -69.374,24.44 0,0 36.702,8.845 60.181,8.845 4.092,0 5.432,-0.344 9.373,-0.531 z"
       style="fill:none;stroke:#ffffff;stroke-width:4;stroke-linecap:round;stroke-linejoin:round;stroke-miterlimit:3;stroke-dasharray:none;stroke-opacity:1"
       transform="matrix(1.3333333,0,0,-1.3333333,266.7296,107.45853)"
       clip-path="url(#clipPath46)" />
    <path
       id="path47"
       d="m 0,0 c -0.899,0.258 -3.446,1.059 -1.399,9.184 2.047,8.124 7.323,12.069 9.488,11.447 2.162,-0.623 4.653,-1.325 3.532,-5.774 C 10.5,10.408 5.646,11.791 4.348,12.164 3.05,12.537 1.019,10.84 -0.023,6.713 -1.063,2.585 0.377,-0.362 0,0 Z m -15.147,0 c 0.897,0.258 3.443,1.059 1.399,9.184 -2.047,8.124 -7.323,12.069 -9.488,11.447 -2.164,-0.623 -4.654,-1.325 -3.533,-5.774 1.119,-4.449 5.974,-3.066 7.271,-2.693 1.298,0.373 3.333,-1.324 4.373,-5.451 1.039,-4.128 -0.259,-7.075 -0.022,-6.713 z m 7.625,-13.321 c 19.381,0 43.121,-3.456 60.449,-8.735 L 66.938,12.348 C 62.545,0.665 51.928,-14.185 45.986,-13.138 c -2.67,0.471 -5.159,5.851 -6.005,12.244 -1.045,7.906 -0.095,17.081 -0.095,17.081 0.012,-0.054 -1.964,-9.549 -5.438,-16.283 -2.986,-5.788 -7.284,-9.01 -10.045,-8.523 -5.969,1.054 -8.571,13.327 -6.912,27.828 0,0 -2.731,-12.287 -6.643,-19.664 -2.899,-5.46 -6.626,-6.728 -9.426,-6.248 l -3.028,0.094 c -1.969,0.312 -4.769,3.505 -4.769,9.021 0,12.372 4.735,14.84 4.735,19.206 0,4.272 -3.291,11.328 -6.043,13.271 -2.752,-1.943 -5.884,-8.999 -5.884,-13.271 0,-4.366 4.734,-6.834 4.734,-19.206 0,-5.516 -2.798,-8.709 -4.768,-9.021 l -3.029,-0.094 c -2.799,-0.48 -6.524,0.788 -9.422,6.248 -3.915,7.377 -6.647,19.664 -6.647,19.664 1.659,-14.501 -0.942,-26.774 -6.912,-27.828 -2.761,-0.487 -7.055,2.735 -10.042,8.523 -3.476,6.734 -5.45,16.229 -5.437,16.283 0,0 0.947,-9.175 -0.098,-17.081 -0.843,-6.393 -3.333,-11.773 -6.005,-12.244 -5.939,-1.047 -16.559,13.803 -20.953,25.486 l 14.012,-34.404 c 17.328,5.279 41.231,8.735 60.612,8.735 z"
       style="fill:none;stroke:#ffffff;stroke-width:3;stroke-linecap:butt;stroke-linejoin:miter;stroke-miterlimit:3.864;stroke-dasharray:none;stroke-opacity:1"
       transform="matrix(1.3333333,0,0,-1.3333333,200.50293,63.644133)"
       clip-path="url(#clipPath48)" />
  </g>
</svg>
